<?xml version="1.0" standalone="no"?>
<!DOCTYPE svg PUBLIC "-//W3C//DTD SVG 20010904//EN"
 "http://www.w3.org/TR/2001/REC-SVG-20010904/DTD/svg10.dtd">
<svg version="1.0" xmlns="http://www.w3.org/2000/svg"
 width="225.000000pt" height="225.000000pt" viewBox="0 0 225.000000 225.000000"
 preserveAspectRatio="xMidYMid meet">

<g transform="translate(0.000000,225.000000) scale(0.100000,-0.100000)"
fill="#000000" stroke="none">
<path d="M1153 2172 c-46 -16 -94 -60 -424 -383 -574 -562 -570 -558 -577
-679 -3 -59 4 -85 72 -290 l76 -225 -110 -108 c-128 -127 -144 -160 -120 -248
15 -52 120 -154 177 -170 77 -21 112 -3 238 122 l110 109 225 -75 c243 -81
287 -88 376 -59 44 15 94 62 496 463 362 361 452 456 470 496 27 60 27 109 0
560 -17 265 -21 305 -40 342 -27 52 -82 98 -136 112 -22 5 -171 17 -331 26
-159 8 -326 17 -370 20 -62 4 -91 1 -132 -13z m512 -111 c179 -11 309 -23 323
-30 53 -28 55 -39 78 -440 20 -333 21 -379 8 -411 -9 -20 -78 -99 -166 -186
l-151 -152 -127 43 -128 43 -33 -34 c-18 -18 -31 -35 -28 -38 2 -2 57 -21 122
-42 64 -21 117 -41 117 -44 0 -3 -52 -57 -115 -120 l-115 -115 -127 43 -127
42 -33 -32 c-18 -18 -33 -35 -33 -38 0 -3 57 -23 126 -45 l125 -38 -93 -95
c-94 -95 -135 -122 -185 -122 -20 0 -322 93 -409 127 -11 4 96 118 379 402
439 439 411 402 412 546 0 57 -4 76 -22 101 -37 51 -83 68 -170 60 -41 -4 -86
-11 -101 -17 -15 -5 -203 -186 -418 -401 l-392 -390 -66 198 c-68 204 -74 233
-56 280 11 27 186 214 201 214 4 0 25 -53 46 -117 20 -65 39 -120 41 -123 1
-2 18 12 37 31 l35 34 -42 128 -43 127 115 115 c63 63 117 115 120 115 3 0 23
-53 44 -117 21 -65 40 -120 42 -122 3 -3 20 10 38 28 l34 33 -43 128 -43 127
152 151 c83 82 160 155 171 161 28 15 154 13 500 -8z m-296 -690 c15 -15 17
-29 13 -72 -2 -30 -10 -65 -18 -79 -7 -14 -244 -256 -526 -537 -584 -583 -542
-552 -624 -469 -83 82 -114 40 469 624 281 282 521 518 531 524 11 6 42 14 70
18 28 4 54 8 59 9 4 0 15 -7 26 -18z"/>
</g>
</svg>
